<svg xmlns="http://www.w3.org/2000/svg" id="Layer_1" data-name="Layer 1" viewBox="0 0 1366 768"><defs><style>      .cls-1 {        fill: #ffc609;      }      .cls-1, .cls-2 {        stroke-width: 0px;      }      .cls-2 {        fill: #1c1917;      }    </style></defs><g><g><path class="cls-2" d="M1287.9,416.3h-2.7v-21.4h-8v-2.5h18.8v2.5h-8v21.4Z"></path><path class="cls-2" d="M1312.6,409.7h-.1l-8.7-12.8v19.3h-2.6v-23.9h2.7l8.7,13,8.7-13h2.7v23.9h-2.7v-19.3l-8.7,12.8Z"></path></g><path class="cls-2" d="M215.8,231.9l-9.8-27c24.4-11.1,48.4-18.4,80.4-18.4,60.3,0,94.1,30.8,94.1,89v135.2h-31.7v-33.4c-15.4,20.1-41.1,38.1-80,38.1s-82.6-23.1-82.6-69.3,38.5-71.9,94.6-71.9,48.4,3.9,68,9.4v-7.7c0-39.8-24.4-60.3-65.9-60.3s-46.6,6.8-67.2,16.3ZM213.5,344.9c0,28.2,25.7,44.5,55.6,44.5s74-24.8,74-59.9v-21.4c-16.3-4.7-38.1-9.4-65-9.4-41.5,0-64.6,18-64.6,46.2Z"></path><path class="cls-2" d="M539.4,415.9c-64.6,0-113.4-52.6-113.4-115.1s48.8-116,113.4-116,68,17.5,88.6,39.4l-21.8,23.1c-17.5-18.4-37.2-33.4-67.2-33.4-44.9,0-79.2,38.1-79.2,86s35.1,86.4,81.3,86.4,50.1-14.1,67.6-32.9l21,19.7c-22.3,24.8-48.8,42.8-90.3,42.8Z"></path><path class="cls-2" d="M773.2,387.3c30.4,0,51.8-12.4,69.8-31.2l20.5,18.4c-22.3,24.8-49.2,41.5-91.1,41.5-60.8,0-110.4-46.6-110.4-115.5s44.9-115.5,106.1-115.5,103.1,52.2,103.1,117.2,0,6.4-.4,10.3h-175.4c4.7,47.9,38.9,74.9,77.9,74.9ZM837.9,288c-3.4-40.2-26.5-75.3-70.6-75.3s-67.6,32.1-71.9,75.3h142.5Z"></path><path class="cls-2" d="M952.9,410.8h-32.9v-221.2h32.9v38.5c14.6-24,37.7-43.2,75.7-43.2s84.7,35.9,84.7,88.6v137.4h-33v-129.2c0-41.1-22.3-66.8-61.2-66.8s-66.3,27.8-66.3,69.3v126.7Z"></path><path class="cls-2" d="M139.3,184.5v-.4H42v33.1h63.9v103.6h.2c0,16.7-6.8,32.7-18.8,44.5-12,11.8-28.3,18.4-45.4,18.4v32.6c25.8,0,50.6-10.1,68.8-28,18.3-17.9,28.5-42.2,28.5-67.5v-136.3h0Z"></path><path class="cls-2" d="M1160.9,184.5v-.4h97.3v33.1h-63.9s0,103.6,0,103.6h-.2c0,16.7,6.8,32.7,18.8,44.5,12,11.8,28.3,18.4,45.4,18.4v32.6c-25.8,0-50.6-10.1-68.8-28-18.3-17.9-28.5-42.2-28.5-67.5v-136.3h0Z"></path></g><g><path class="cls-1" d="M42.1,471h43c5.6,0,11,.5,16.1,1.6,5.1,1.1,9.5,2.9,13.3,5.5,3.8,2.6,6.8,6,9.1,10.3,2.2,4.3,3.4,9.7,3.4,16.2s-2,14.5-6.1,20c-4.1,5.5-10,9-17.9,10.4l28.2,46.9h-29.3l-23.2-44.4h-12.1v44.4h-24.5v-111ZM66.5,517h14.4c2.2,0,4.5,0,7-.2,2.5-.2,4.7-.6,6.7-1.4,2-.8,3.6-2,4.9-3.7,1.3-1.7,2-4,2-7.1s-.6-5.1-1.7-6.7c-1.2-1.7-2.6-3-4.4-3.8-1.8-.9-3.8-1.5-6.1-1.8-2.3-.3-4.5-.5-6.7-.5h-16v25.2Z"></path><path class="cls-1" d="M197.2,568.9c-3.8,4.8-8.5,8.5-14.3,11.1-5.8,2.6-11.7,3.9-17.9,3.9s-11.4-.9-16.5-2.8c-5.2-1.9-9.7-4.6-13.5-8.1-3.8-3.5-6.8-7.7-9-12.6-2.2-4.9-3.3-10.4-3.3-16.5s1.1-11.5,3.3-16.5c2.2-4.9,5.2-9.1,9-12.6,3.8-3.5,8.3-6.2,13.5-8.1,5.2-1.9,10.7-2.8,16.5-2.8s10.4.9,14.8,2.8c4.4,1.9,8.2,4.6,11.3,8.1,3.1,3.5,5.5,7.7,7.1,12.6,1.7,4.9,2.5,10.4,2.5,16.5v7.4h-54.6c.9,4.5,3,8.1,6.1,10.7,3.1,2.7,7,4,11.6,4s7.1-.9,9.8-2.6c2.7-1.7,5-3.9,7-6.7l16.5,12.1ZM177.2,535.3c.1-4-1.2-7.4-3.9-10.2-2.7-2.8-6.2-4.2-10.5-4.2s-4.9.4-6.9,1.3c-2,.8-3.7,1.9-5.1,3.2-1.4,1.3-2.5,2.8-3.3,4.5-.8,1.7-1.2,3.5-1.3,5.4h31Z"></path><path class="cls-1" d="M260.7,524.6h-20.7v25.4c0,2.1.1,4,.3,5.7.2,1.7.7,3.2,1.4,4.5.7,1.3,1.9,2.2,3.4,2.9,1.5.7,3.5,1,6,1s2.9-.1,4.9-.4c2-.3,3.6-.9,4.6-1.8v19.6c-2.6.9-5.3,1.6-8.2,1.9-2.8.3-5.6.5-8.3.5-4,0-7.6-.4-11-1.3-3.3-.8-6.3-2.2-8.8-4-2.5-1.8-4.5-4.2-5.9-7.1-1.4-2.9-2.1-6.5-2.1-10.7v-36.2h-15.1v-18.8h15.1v-22.6h23.5v22.6h20.7v18.8Z"></path><path class="cls-1" d="M317.3,572.5h-.3c-2.6,4.1-6.1,7-10.4,8.8-4.3,1.8-8.9,2.7-13.7,2.7s-7-.5-10.3-1.5c-3.3-1-6.2-2.5-8.7-4.5-2.5-2-4.5-4.4-6-7.4-1.5-2.9-2.2-6.3-2.2-10.2s.8-8.1,2.4-11.1c1.6-3,3.8-5.5,6.6-7.5,2.8-2,5.9-3.5,9.5-4.6,3.6-1.1,7.2-1.9,11.1-2.4,3.8-.5,7.6-.8,11.4-.9,3.8-.1,7.3-.2,10.6-.2,0-4.2-1.5-7.5-4.5-10-3-2.5-6.5-3.7-10.6-3.7s-7.4.8-10.6,2.4c-3.2,1.6-6,3.8-8.5,6.7l-12.5-12.9c4.4-4.1,9.5-7.1,15.4-9.2,5.9-2,11.9-3.1,18.2-3.1s12.6.9,17,2.6c4.4,1.7,8,4.3,10.7,7.6,2.7,3.3,4.5,7.4,5.6,12.3,1,4.9,1.6,10.5,1.6,16.9v38.7h-21.6v-9.6ZM311.5,548.6c-1.8,0-4,0-6.7.2-2.7.2-5.2.6-7.7,1.3-2.5.7-4.5,1.8-6.3,3.3-1.7,1.5-2.6,3.5-2.6,6.1s1.2,4.9,3.6,6.3c2.4,1.4,4.9,2,7.5,2s4.5-.3,6.7-.9c2.1-.6,4-1.5,5.7-2.7,1.7-1.1,3-2.6,4-4.4,1-1.8,1.5-3.9,1.5-6.3v-5h-5.8Z"></path><path class="cls-1" d="M345.8,481.8c0-3.8,1.3-7,4-9.6,2.7-2.7,5.9-4,9.6-4s7,1.3,9.6,4c2.7,2.7,4,5.9,4,9.6s-1.3,7-4,9.6c-2.7,2.7-5.9,4-9.6,4s-7-1.3-9.6-4c-2.7-2.7-4-5.9-4-9.6ZM347.7,505.8h23.5v76.2h-23.5v-76.2Z"></path><path class="cls-1" d="M379,463.5h23.5v118.5h-23.5v-118.5Z"></path><path class="cls-1" d="M450.2,505.8h22.6v10.3h.3c.7-1.5,1.8-2.9,3.1-4.4,1.4-1.5,3-2.8,4.9-3.9,1.9-1.1,4-2.1,6.4-2.8,2.4-.7,5-1.1,7.8-1.1,5.3,0,10.1,1.1,14.2,3.3,4.1,2.2,7.2,5.6,9.3,10.3,2.7-4.9,6-8.4,9.9-10.5,3.9-2.1,8.6-3.1,14.3-3.1s9.4.9,12.9,2.6c3.5,1.7,6.3,4.1,8.3,7.1,2,3,3.5,6.5,4.4,10.5.9,4,1.3,8.3,1.3,12.9v45h-23.5v-44.4c0-3.6-.8-6.6-2.3-9.2-1.5-2.6-4.2-3.8-8.1-3.8s-5,.4-6.8,1.3c-1.8.9-3.3,2.1-4.4,3.7-1.1,1.6-1.9,3.4-2.4,5.5-.5,2.1-.7,4.3-.7,6.6v40.3h-23.5v-40.3c0-1.4,0-3-.2-5-.1-2-.5-3.9-1.1-5.6s-1.6-3.3-3.1-4.5c-1.4-1.3-3.5-1.9-6.2-1.9s-5.5.5-7.4,1.6c-1.9,1.1-3.3,2.6-4.3,4.4-1,1.8-1.6,3.9-2,6.2-.3,2.3-.5,4.7-.5,7.2v37.9h-23.5v-76.2Z"></path><path class="cls-1" d="M628.2,572.5h-.3c-2.6,4.1-6.1,7-10.4,8.8-4.3,1.8-8.9,2.7-13.7,2.7s-7-.5-10.3-1.5c-3.3-1-6.2-2.5-8.7-4.5-2.5-2-4.5-4.4-6-7.4-1.5-2.9-2.2-6.3-2.2-10.2s.8-8.1,2.4-11.1c1.6-3,3.8-5.5,6.6-7.5,2.8-2,5.9-3.5,9.5-4.6,3.6-1.1,7.2-1.9,11.1-2.4,3.8-.5,7.6-.8,11.4-.9,3.8-.1,7.3-.2,10.6-.2,0-4.2-1.5-7.5-4.5-10-3-2.5-6.5-3.7-10.6-3.7s-7.4.8-10.6,2.4c-3.2,1.6-6,3.8-8.5,6.7l-12.5-12.9c4.4-4.1,9.5-7.1,15.4-9.2,5.9-2,11.9-3.1,18.2-3.1s12.6.9,17,2.6c4.4,1.7,8,4.3,10.7,7.6,2.7,3.3,4.5,7.4,5.6,12.3,1,4.9,1.6,10.5,1.6,16.9v38.7h-21.6v-9.6ZM622.4,548.6c-1.8,0-4,0-6.7.2-2.7.2-5.2.6-7.7,1.3-2.5.7-4.5,1.8-6.3,3.3-1.7,1.5-2.6,3.5-2.6,6.1s1.2,4.9,3.6,6.3c2.4,1.4,4.9,2,7.5,2s4.5-.3,6.7-.9c2.1-.6,4-1.5,5.7-2.7,1.7-1.1,3-2.6,4-4.4,1-1.8,1.5-3.9,1.5-6.3v-5h-5.8Z"></path><path class="cls-1" d="M738.3,582h-21.6v-10h-.3c-.9,1.4-2.2,2.7-3.7,4.2-1.5,1.4-3.3,2.7-5.3,3.8-2,1.2-4.3,2.1-6.7,2.8-2.5.7-5,1.1-7.6,1.1-5.6,0-10.8-1-15.4-2.9-4.6-1.9-8.5-4.7-11.8-8.2-3.3-3.5-5.8-7.7-7.6-12.5-1.8-4.8-2.7-10.1-2.7-15.8s.8-10.4,2.4-15.3c1.6-4.9,3.9-9.2,6.9-12.9,3-3.8,6.6-6.8,10.9-9,4.3-2.2,9.1-3.4,14.6-3.4s9.5.8,13.7,2.3c4.2,1.5,7.7,4.1,10.4,7.8h.3v-50.5h23.5v118.5ZM716.6,543.9c0-5.7-1.6-10.4-4.9-14-3.3-3.6-7.9-5.3-13.9-5.3s-10.6,1.8-13.9,5.3c-3.3,3.6-4.9,8.2-4.9,14s1.6,10.4,4.9,14c3.3,3.6,7.9,5.3,13.9,5.3s10.6-1.8,13.9-5.3c3.3-3.6,4.9-8.2,4.9-14Z"></path><path class="cls-1" d="M816.6,568.9c-3.8,4.8-8.5,8.5-14.3,11.1-5.8,2.6-11.7,3.9-17.9,3.9s-11.4-.9-16.5-2.8c-5.2-1.9-9.7-4.6-13.5-8.1-3.8-3.5-6.8-7.7-9-12.6-2.2-4.9-3.3-10.4-3.3-16.5s1.1-11.5,3.3-16.5c2.2-4.9,5.2-9.1,9-12.6,3.8-3.5,8.3-6.2,13.5-8.1s10.7-2.8,16.5-2.8,10.4.9,14.8,2.8c4.4,1.9,8.2,4.6,11.3,8.1,3.1,3.5,5.5,7.7,7.1,12.6,1.7,4.9,2.5,10.4,2.5,16.5v7.4h-54.6c.9,4.5,3,8.1,6.1,10.7,3.1,2.7,7,4,11.6,4s7.1-.9,9.8-2.6c2.7-1.7,5-3.9,7-6.7l16.5,12.1ZM796.7,535.3c.1-4-1.2-7.4-3.9-10.2-2.7-2.8-6.2-4.2-10.5-4.2s-4.9.4-6.9,1.3c-2,.8-3.7,1.9-5.1,3.2s-2.5,2.8-3.3,4.5c-.8,1.7-1.2,3.5-1.3,5.4h31Z"></path><path class="cls-1" d="M934.2,568.9c-3.8,4.8-8.5,8.5-14.3,11.1-5.8,2.6-11.7,3.9-17.9,3.9s-11.4-.9-16.5-2.8c-5.2-1.9-9.7-4.6-13.5-8.1-3.8-3.5-6.8-7.7-9-12.6-2.2-4.9-3.3-10.4-3.3-16.5s1.1-11.5,3.3-16.5c2.2-4.9,5.2-9.1,9-12.6,3.8-3.5,8.3-6.2,13.5-8.1,5.2-1.9,10.7-2.8,16.5-2.8s10.4.9,14.8,2.8c4.4,1.9,8.2,4.6,11.3,8.1,3.1,3.5,5.5,7.7,7.1,12.6,1.7,4.9,2.5,10.4,2.5,16.5v7.4h-54.6c.9,4.5,3,8.1,6.1,10.7,3.1,2.7,7,4,11.6,4s7.1-.9,9.8-2.6c2.7-1.7,5-3.9,7-6.7l16.5,12.1ZM914.3,535.3c.1-4-1.2-7.4-3.9-10.2-2.7-2.8-6.2-4.2-10.5-4.2s-4.9.4-6.9,1.3c-2,.8-3.7,1.9-5.1,3.2-1.4,1.3-2.5,2.8-3.3,4.5-.8,1.7-1.2,3.5-1.3,5.4h31Z"></path><path class="cls-1" d="M990.5,572.5h-.3c-2.6,4.1-6.1,7-10.4,8.8-4.3,1.8-8.9,2.7-13.7,2.7s-7-.5-10.3-1.5c-3.3-1-6.2-2.5-8.7-4.5-2.5-2-4.5-4.4-6-7.4-1.5-2.9-2.2-6.3-2.2-10.2s.8-8.1,2.4-11.1c1.6-3,3.8-5.5,6.6-7.5,2.8-2,5.9-3.5,9.5-4.6,3.6-1.1,7.2-1.9,11.1-2.4,3.8-.5,7.6-.8,11.4-.9,3.8-.1,7.3-.2,10.6-.2,0-4.2-1.5-7.5-4.5-10-3-2.5-6.5-3.7-10.6-3.7s-7.4.8-10.6,2.4c-3.2,1.6-6,3.8-8.5,6.7l-12.5-12.9c4.4-4.1,9.5-7.1,15.4-9.2,5.9-2,11.9-3.1,18.2-3.1s12.6.9,17,2.6c4.4,1.7,8,4.3,10.7,7.6,2.7,3.3,4.5,7.4,5.6,12.3,1,4.9,1.6,10.5,1.6,16.9v38.7h-21.6v-9.6ZM984.7,548.6c-1.8,0-4,0-6.7.2-2.7.2-5.2.6-7.7,1.3-2.5.7-4.5,1.8-6.3,3.3-1.7,1.5-2.6,3.5-2.6,6.1s1.2,4.9,3.6,6.3c2.4,1.4,4.9,2,7.5,2s4.5-.3,6.7-.9c2.1-.6,4-1.5,5.7-2.7,1.7-1.1,3-2.6,4-4.4,1-1.8,1.5-3.9,1.5-6.3v-5h-5.8Z"></path><path class="cls-1" d="M1063.8,528.2c-3.5-4.3-8-6.4-13.6-6.4s-3.9.5-5.8,1.4-2.8,2.6-2.8,4.9,1,3.3,2.9,4.2c1.9.9,4.4,1.7,7.4,2.4,3,.7,6.2,1.4,9.6,2.2,3.4.8,6.6,2,9.6,3.7,3,1.7,5.4,3.9,7.4,6.8,1.9,2.9,2.9,6.7,2.9,11.5s-1.1,9-3.2,12.2c-2.1,3.2-4.9,5.8-8.2,7.7-3.3,1.9-7.1,3.3-11.3,4.1-4.2.8-8.3,1.2-12.4,1.2s-10.7-.8-16.1-2.3c-5.4-1.5-10-4.2-13.8-8.1l14.3-15.8c2.2,2.7,4.6,4.8,7.3,6.2,2.7,1.4,5.8,2.1,9.3,2.1s5.2-.4,7.4-1.2c2.2-.8,3.3-2.2,3.3-4.3s-1-3.5-2.9-4.5c-1.9-1-4.4-1.8-7.4-2.5-3-.7-6.2-1.4-9.6-2.2-3.4-.8-6.6-2-9.6-3.5-3-1.6-5.4-3.8-7.4-6.7-1.9-2.9-2.9-6.7-2.9-11.5s.9-8.4,2.7-11.6c1.8-3.2,4.2-5.9,7.2-8,3-2.1,6.4-3.6,10.3-4.6,3.9-1,7.8-1.5,11.8-1.5s10.1.7,15.2,2.2c5.1,1.5,9.5,4.1,13,7.8l-14.4,14.3Z"></path><path class="cls-1" d="M1085.4,481.8c0-3.8,1.3-7,4-9.6,2.7-2.7,5.9-4,9.6-4s7,1.3,9.6,4c2.7,2.7,4,5.9,4,9.6s-1.3,7-4,9.6c-2.7,2.7-5.9,4-9.6,4s-7-1.3-9.6-4c-2.7-2.7-4-5.9-4-9.6ZM1087.3,505.8h23.5v76.2h-23.5v-76.2Z"></path><path class="cls-1" d="M1190.4,568.9c-3.8,4.8-8.5,8.5-14.3,11.1-5.8,2.6-11.7,3.9-17.9,3.9s-11.4-.9-16.5-2.8c-5.2-1.9-9.7-4.6-13.5-8.1-3.8-3.5-6.8-7.7-9-12.6-2.2-4.9-3.3-10.4-3.3-16.5s1.1-11.5,3.3-16.5c2.2-4.9,5.2-9.1,9-12.6,3.8-3.5,8.3-6.2,13.5-8.1s10.7-2.8,16.5-2.8,10.4.9,14.8,2.8c4.4,1.9,8.2,4.6,11.3,8.1,3.1,3.5,5.5,7.7,7.1,12.6,1.7,4.9,2.5,10.4,2.5,16.5v7.4h-54.6c.9,4.5,3,8.1,6.1,10.7,3.1,2.7,7,4,11.6,4s7.1-.9,9.8-2.6c2.7-1.7,5-3.9,7-6.7l16.5,12.1ZM1170.5,535.3c.1-4-1.2-7.4-3.9-10.2-2.7-2.8-6.2-4.2-10.5-4.2s-4.9.4-6.9,1.3c-2,.8-3.7,1.9-5.1,3.2s-2.5,2.8-3.3,4.5c-.8,1.7-1.2,3.5-1.3,5.4h31Z"></path><path class="cls-1" d="M1198.9,505.8h23.5v12.2h.3c2.5-4.7,5.5-8.2,8.9-10.6,3.4-2.4,7.8-3.5,13-3.5s2.7,0,4.1.2c1.4.1,2.6.3,3.8.6v21.5c-1.7-.5-3.3-.9-4.9-1.2-1.6-.3-3.3-.4-5.1-.4-4.5,0-8.1.6-10.7,1.9-2.6,1.3-4.6,3-6,5.3-1.4,2.2-2.3,4.9-2.7,8.1-.4,3.1-.6,6.6-.6,10.3v31.8h-23.5v-76.2Z"></path><path class="cls-1" d="M1236.2,568.5c0-2,.4-3.9,1.1-5.6.7-1.8,1.7-3.3,3.1-4.6,1.3-1.3,2.8-2.3,4.6-3.1,1.8-.7,3.7-1.1,5.6-1.1s3.9.4,5.6,1.1c1.8.7,3.3,1.8,4.6,3.1,1.3,1.3,2.3,2.8,3.1,4.6.7,1.8,1.1,3.7,1.1,5.6s-.4,3.9-1.1,5.6c-.7,1.8-1.8,3.3-3.1,4.6-1.3,1.3-2.8,2.3-4.6,3.1-1.8.7-3.7,1.1-5.6,1.1s-3.9-.4-5.6-1.1c-1.8-.7-3.3-1.7-4.6-3.1-1.3-1.3-2.3-2.8-3.1-4.6-.7-1.8-1.1-3.7-1.1-5.6Z"></path></g></svg>
