<?xml version="1.0" encoding="utf-8"?>
<!-- Generator: Adobe Illustrator 23.0.1, SVG Export Plug-In . SVG Version: 6.00 Build 0)  -->
<svg version="1.1" id="Layer_1" xmlns="http://www.w3.org/2000/svg" xmlns:xlink="http://www.w3.org/1999/xlink" x="0px" y="0px"
	 viewBox="0 0 1000 1000" style="enable-background:new 0 0 1000 1000;" xml:space="preserve">
<style type="text/css">
	.st0{fill-rule:evenodd;clip-rule:evenodd;fill:#EE2352;}
	.st1{fill-rule:evenodd;clip-rule:evenodd;fill:#67C9CF;}
	.st2{fill-rule:evenodd;clip-rule:evenodd;fill:#020202;}
	.st3{fill-rule:evenodd;clip-rule:evenodd;fill:#EE2353;}
	.st4{fill-rule:evenodd;clip-rule:evenodd;fill:#6BCAD0;}
	.st5{fill:#020202;}
	.st6{fill:#EE2352;}
	.st7{fill:#67C9CF;}
	.st8{fill:#FFFFFF;}
	.st9{fill:#EE2353;}
	.st10{fill:#6BCAD0;}
	.st11{fill-rule:evenodd;clip-rule:evenodd;fill:#FFFFFF;}
	.st12{fill-rule:evenodd;clip-rule:evenodd;fill:#ED1C24;}
	.st13{fill:#ED1C24;}
	.st14{fill-rule:evenodd;clip-rule:evenodd;fill:#FFDE17;}
	.st15{fill:#FFDE17;}
	.st16{fill-rule:evenodd;clip-rule:evenodd;fill:#EC008C;}
	.st17{fill:#EC008C;}
	.st18{fill-rule:evenodd;clip-rule:evenodd;fill:#EF4136;}
	.st19{fill:#EF4136;}
	.st20{fill-rule:evenodd;clip-rule:evenodd;fill:#009444;}
	.st21{fill:#009444;}
	.st22{fill-rule:evenodd;clip-rule:evenodd;fill:#1B75BC;}
	.st23{fill:#1B75BC;}
	.st24{fill-rule:evenodd;clip-rule:evenodd;fill:#662D91;}
	.st25{fill:#662D91;}
	.st26{fill-rule:evenodd;clip-rule:evenodd;fill:#9E1F63;}
	.st27{fill:#9E1F63;}
	.st28{fill-rule:evenodd;clip-rule:evenodd;fill:#594A42;}
	.st29{fill:#594A42;}
	.st30{fill-rule:evenodd;clip-rule:evenodd;fill:#603913;}
	.st31{fill:#603913;}
	.st32{fill-rule:evenodd;clip-rule:evenodd;fill:#DA1C5C;}
	.st33{fill:#DA1C5C;}
	.st34{fill-rule:evenodd;clip-rule:evenodd;fill:#F9C6DC;}
	.st35{fill:#F9C6DC;}
	.st36{fill-rule:evenodd;clip-rule:evenodd;fill:#DB8F8D;}
	.st37{fill:#DB8F8D;}
	.st38{fill-rule:evenodd;clip-rule:evenodd;fill:#BCBEC0;}
	.st39{fill:#BCBEC0;}
</style>
<g>
	<polygon class="st5" points="588.1,393.3 588.1,393.3 588.1,393.3 	"/>
	<path class="st5" d="M662.8,353.6c-5.9-1.3-11.6-3.1-17.1-5.4C651.2,350.5,656.9,352.3,662.8,353.6z"/>
	<path class="st5" d="M450.1,458.1c-0.3,0-0.6-0.1-0.9-0.1C449.5,458.1,449.8,458.1,450.1,458.1z"/>
	<path class="st5" d="M447.5,457.9c-0.2,0-0.3,0-0.5,0C447.2,457.8,447.4,457.8,447.5,457.9z"/>
	<path class="st5" d="M452.6,458.5c-0.4-0.1-0.8-0.1-1.2-0.2C451.8,458.4,452.2,458.5,452.6,458.5z"/>
	<path class="st5" d="M455,459c-0.5-0.1-0.9-0.2-1.4-0.3C454.1,458.8,454.5,458.9,455,459z"/>
	<path class="st5" d="M459.1,460.1c-0.4-0.1-0.8-0.2-1.2-0.3C458.3,459.8,458.7,459.9,459.1,460.1z"/>
	<path class="st5" d="M457.2,459.5c-0.5-0.1-1-0.3-1.4-0.4C456.2,459.3,456.7,459.4,457.2,459.5z"/>
	<path class="st5" d="M445,457.7c-0.1,0-0.1,0-0.2,0C444.9,457.7,444.9,457.7,445,457.7z"/>
	<path class="st5" d="M500,122.7c-208.4,0-377.3,168.9-377.3,377.3c0,208.4,168.9,377.3,377.3,377.3S877.3,708.4,877.3,500
		C877.3,291.6,708.4,122.7,500,122.7z M442.8,389.8c5.8,0,11.5,0.4,17.2,1.2v15.4c6.6-0.1,13.3,0.2,19.9,1.1v69.4
		c-5.6-1.8-11.5-2.7-17.4-2.7c-31.7,0-57.4,25.7-57.4,57.4c0,12.5,4.1,24.8,11.7,34.7c-18.7-9.4-31.6-28.8-31.6-51.2
		c0-31.7,25.7-57.4,57.4-57.4c0.1,0,0.2,0,0.2,0c-0.1,0-0.2,0-0.2,0c-31.7,0-57.4,25.7-57.4,57.4c0,22.4,12.8,41.8,31.6,51.2
		c7.8,3.9,16.5,6.1,25.8,6.1c31.6,0,57.3-25.6,57.4-57.2v-271h68.3v8.7c0.2,2.6,0.6,5.2,1,7.8h18.8v8.7
		c1.9,21.3,10.9,40.5,24.5,55.4c0.5,0.5,1,1,1.4,1.5c-0.5-0.5-1-1-1.4-1.5c15.1,9.4,32.5,14.4,50.2,14.3v14.4
		c6.5,1.4,13.2,2.1,19.9,2.1v67.8c-35.3,0-67.9-11.2-94.6-30.3v138.5c0,69.3-56.2,125.4-125.5,125.4c-35.1,0-66.9-14.4-89.7-37.7
		c0,0,0,0,0,0c0,0,0,0,0,0c-33.5-22.5-55.6-60.8-55.6-104.2C317.3,445.9,373.5,389.8,442.8,389.8z M372.9,691.5h-16.1v63.8h-19.8
		V691h-19.8v-16.9h61.1L372.9,691.5z M401.4,755.3h-19.3v-55.2h19.3V755.3z M391.8,693.3c-5.3,0-9.6-4.3-9.6-9.6
		c0-5.3,4.3-9.6,9.6-9.6c5.3,0,9.7,4.3,9.7,9.6C401.4,689,397.1,693.3,391.8,693.3z M453.8,755.8L435,728.9l-6,5.5v21h-19.3v-81.2
		H429V712l19.3-19.1h23.4l-24.4,23.7l27.1,39.2H453.8z M518.6,755.3h-19.8V691h-19.8v-16.9h61.1l-5.5,17.3h-16.1V755.3z
		 M577.9,755.8h-5.1c18,0,32.6-14,33.5-31.6c-0.9,17.6-15.6,31.6-33.5,31.6h-0.5h0h-5.1c-18.5,0-33.6-14.9-33.6-33.3
		c0-18.4,15-33.3,33.6-33.3h5.1h0h0.5c18,0,32.6,14,33.5,31.6c-0.9-17.6-15.6-31.6-33.5-31.6h5.1c18.5,0,33.6,14.9,33.6,33.3
		C611.5,740.9,596.4,755.8,577.9,755.8z M662,755.8l-18.8-26.9l-6,5.5v21h-19.3v-81.2h19.3V712l19.3-19.1h23.4l-24.4,23.7l27.1,39.2
		H662z"/>
	<path class="st5" d="M569.3,260.7c3.4,19.4,12.7,36.8,26,50.2C582,297.5,572.7,280.1,569.3,260.7z"/>
	<path class="st5" d="M462.4,588.9c29.7,0,54.1-22.5,57.1-51.3C516.5,566.4,492.1,588.9,462.4,588.9z"/>
	<path class="st5" d="M645.3,348c-0.8-0.3-1.6-0.7-2.4-1.1C643.7,347.3,644.5,347.7,645.3,348z"/>
	<path class="st5" d="M600.7,316c-1.9-1.6-3.7-3.3-5.4-5.1C597,312.7,598.8,314.4,600.7,316z"/>
	<path class="st5" d="M635.3,343c-0.2-0.1-0.3-0.2-0.5-0.3C635,342.8,635.1,342.9,635.3,343z"/>
	<path class="st5" d="M641.9,346.5c-0.6-0.3-1.2-0.6-1.8-0.9C640.7,345.9,641.3,346.2,641.9,346.5z"/>
	<path class="st5" d="M638.6,344.8c-0.4-0.2-0.8-0.4-1.1-0.6C637.8,344.4,638.2,344.6,638.6,344.8z"/>
	<path class="st5" d="M562.2,710c0.1-0.1,0.1-0.1,0.2-0.2C562.4,709.9,562.3,710,562.2,710z"/>
	<polygon class="st5" points="460,460.3 460,460.3 460,406.3 460,406.3 	"/>
	<path class="st5" d="M572.6,706.3C572.6,706.3,572.6,706.3,572.6,706.3c2.3,0,4.4,0.5,6.3,1.3C577,706.8,574.9,706.3,572.6,706.3z"
		/>
	<path class="st5" d="M572.6,738.7c-8.4,0-15.4-6.4-16.2-14.5C557.2,732.3,564.2,738.7,572.6,738.7c5.1,0,9.6-2.3,12.6-5.9
		C582.2,736.4,577.7,738.7,572.6,738.7z"/>
	<path class="st5" d="M561.1,711.1c0.2-0.2,0.4-0.4,0.7-0.6C561.5,710.7,561.3,710.9,561.1,711.1z"/>
	<path class="st5" d="M608.5,322.1c-1.4-0.9-2.7-1.9-4-2.9C605.8,320.2,607.1,321.1,608.5,322.1z"/>
	<path class="st5" d="M556.4,720.9c0.4-3.8,2.1-7.1,4.6-9.7C558.5,713.7,556.8,717.1,556.4,720.9z"/>
	<path class="st6" d="M577.9,689.2h-5.1c18,0,32.6,14,33.5,31.6c0,0.6,0,1.1,0,1.7s0,1.1,0,1.7c-0.9,17.6-15.6,31.6-33.5,31.6h5.1
		c18.5,0,33.6-14.9,33.6-33.3C611.5,704.1,596.4,689.2,577.9,689.2z"/>
	<path class="st7" d="M540.3,732.4c-0.3-1-0.6-2.1-0.8-3.2c-0.4-2.2-0.7-4.4-0.7-6.7c0-2.3,0.2-4.5,0.7-6.7c0.2-1.1,0.5-2.1,0.8-3.2
		c4.2-13.5,17-23.4,32-23.4h-5.1c-18.5,0-33.6,14.9-33.6,33.3c0,18.4,15,33.3,33.6,33.3h5.1C557.3,755.8,544.6,746,540.3,732.4z"/>
	<path class="st5" d="M579,707.6c-2-0.8-4.1-1.3-6.4-1.3c-3.8,0-7.4,1.3-10.2,3.5c-0.1,0.1-0.1,0.1-0.2,0.2
		c-0.2,0.1-0.3,0.3-0.5,0.4c-0.2,0.2-0.5,0.4-0.7,0.6c0,0-0.1,0.1-0.1,0.1c-2.5,2.6-4.2,5.9-4.6,9.7c-0.1,0.5-0.1,1.1-0.1,1.7
		s0,1.1,0.1,1.7c0.8,8.2,7.8,14.5,16.2,14.5c5.1,0,9.6-2.3,12.6-5.9c2.3-2.8,3.7-6.4,3.7-10.3C588.9,715.8,584.8,710.1,579,707.6z"
		/>
	<polygon class="st8" points="317.3,691 337.1,691 337.1,755.3 356.8,755.3 356.8,691.5 372.9,691.5 378.4,674.2 317.3,674.2 	"/>
	<polygon class="st8" points="679.9,692.9 656.5,692.9 637.2,712 637.2,674.2 617.9,674.2 617.9,755.3 637.2,755.3 637.2,734.4 
		643.2,728.9 662,755.8 682.7,755.8 655.6,716.6 	"/>
	<rect x="382.1" y="700.2" class="st8" width="19.3" height="55.2"/>
	<polygon class="st8" points="540.2,674.2 479.1,674.2 479.1,691 498.8,691 498.8,755.3 518.6,755.3 518.6,691.5 534.7,691.5 	"/>
	<path class="st8" d="M391.8,674.2c-5.3,0-9.6,4.3-9.6,9.6c0,5.3,4.3,9.6,9.6,9.6c5.3,0,9.7-4.3,9.7-9.6
		C401.4,678.5,397.1,674.2,391.8,674.2z"/>
	<polygon class="st8" points="471.7,692.9 448.3,692.9 429,712 429,674.2 409.7,674.2 409.7,755.3 429,755.3 429,734.4 435,728.9 
		453.8,755.8 474.5,755.8 447.4,716.6 	"/>
	<path class="st9" d="M656.3,406.9c-3.3-0.1-6.5-0.4-9.7-0.7c-1.1-0.1-2.1-0.2-3.2-0.4c-27.8-3.3-53.4-13.6-75.1-29.1v138.5v0
		c0,69.3-56.2,125.4-125.5,125.4c-25.9,0-49.9-7.8-69.8-21.2c22.8,23.3,54.6,37.7,89.7,37.7c69.3,0,125.5-56.1,125.5-125.4V393.3
		c0,0,0,0,0,0h0v0c26.7,19,59.3,30.3,94.6,30.3v-67.8c-6.7,0-13.3-0.7-19.9-2.1V407C660.6,407,658.4,407,656.3,406.9z"/>
	<path class="st9" d="M600.7,316c1.2,1.1,2.5,2.1,3.8,3.1c1.3,1,2.6,2,4,2.9c1.4,0.9,2.7,1.9,4.1,2.7
		c-13.6-14.9-22.6-34.1-24.5-55.4v-8.7h-18.8c3.4,19.4,12.7,36.8,26,50.2C597,312.7,598.8,314.4,600.7,316z"/>
	<path class="st9" d="M460,460.3L460,460.3c-0.3-0.1-0.6-0.2-0.9-0.3c-0.4-0.1-0.8-0.2-1.2-0.3c-0.2-0.1-0.5-0.1-0.7-0.2
		c-0.5-0.1-1-0.3-1.4-0.4c-0.3-0.1-0.5-0.1-0.8-0.2c-0.5-0.1-0.9-0.2-1.4-0.3c-0.3-0.1-0.7-0.1-1-0.2c-0.4-0.1-0.8-0.1-1.2-0.2
		c-0.4-0.1-0.9-0.1-1.3-0.2c-0.3,0-0.6-0.1-0.9-0.1c-0.6-0.1-1.1-0.1-1.7-0.2c-0.2,0-0.3,0-0.5,0c-0.7-0.1-1.4-0.1-2.1-0.1
		c-0.1,0-0.1,0-0.2,0c-0.7,0-1.4,0-2,0c-0.1,0-0.2,0-0.2,0c-31.7,0-57.4,25.7-57.4,57.4c0,22.4,12.8,41.8,31.6,51.2
		c-7.6-10-11.7-22.2-11.7-34.7c0-31.7,25.7-57.4,57.4-57.4c5.9,0,11.8,0.9,17.4,2.7v-69.4c-6.6-0.9-13.2-1.3-19.9-1.1L460,460.3
		C460,460.3,460,460.3,460,460.3z"/>
	<path class="st8" d="M445,457.7c0.7,0,1.4,0.1,2.1,0.1c0.2,0,0.3,0,0.5,0c0.6,0,1.1,0.1,1.7,0.2c0.3,0,0.6,0.1,0.9,0.1
		c0.4,0.1,0.9,0.1,1.3,0.2c0.4,0.1,0.8,0.1,1.2,0.2c0.3,0.1,0.7,0.1,1,0.2c0.5,0.1,0.9,0.2,1.4,0.3c0.3,0.1,0.5,0.1,0.8,0.2
		c0.5,0.1,1,0.2,1.4,0.4c0.2,0.1,0.5,0.1,0.7,0.2c0.4,0.1,0.8,0.2,1.2,0.3c0.3,0.1,0.6,0.2,0.9,0.3v-54
		c-68.1,1.4-122.8,57-122.8,125.4c0,34.1,13.6,65.1,35.8,87.7c0,0,0,0,0,0c0,0,0,0,0,0c0,0,0,0,0,0c0,0,0,0,0,0
		c20,13.4,44,21.2,69.8,21.2c69.3,0,125.5-56.1,125.5-125.4V376.7c21.7,15.5,47.3,25.8,75.1,29.1c1.1,0.1,2.1,0.2,3.2,0.4
		c3.2,0.3,6.5,0.5,9.7,0.7c2.2,0.1,4.4,0.1,6.6,0.1v-53.4c-5.9-1.3-11.7-3.1-17.1-5.4c-0.1-0.1-0.3-0.1-0.4-0.2
		c-0.8-0.3-1.6-0.7-2.4-1.1c-0.3-0.2-0.7-0.3-1-0.5c-0.6-0.3-1.2-0.6-1.8-0.9c-0.5-0.3-1.1-0.5-1.6-0.8c-0.4-0.2-0.8-0.4-1.1-0.6
		c-0.7-0.4-1.4-0.8-2.1-1.2c-0.2-0.1-0.3-0.2-0.5-0.3c-7.6-4.4-14.6-9.9-20.7-16.4c-0.5-0.5-1-1-1.4-1.5c-1.4-0.9-2.8-1.8-4.1-2.7
		c-1.4-0.9-2.7-1.9-4-2.9c-1.3-1-2.6-2.1-3.8-3.1c-1.9-1.6-3.7-3.3-5.4-5.1c-13.3-13.4-22.6-30.8-26-50.2h-49.5v271
		c0,2-0.1,3.9-0.3,5.8c-3,28.8-27.4,51.3-57.1,51.3c-18.6,0-35.2-8.9-45.7-22.6c-18.7-9.4-31.6-28.8-31.6-51.2
		c0-31.7,25.7-57.4,57.4-57.4c0.1,0,0.2,0,0.2,0c0.7,0,1.4,0,2,0C444.9,457.7,444.9,457.7,445,457.7z"/>
	<path class="st8" d="M646.5,406.2c3.2,0.3,6.5,0.5,9.7,0.7C653,406.7,649.7,406.5,646.5,406.2z"/>
	<path class="st8" d="M455.8,459.2c-0.3-0.1-0.5-0.1-0.8-0.2C455.2,459.1,455.5,459.1,455.8,459.2z"/>
	<path class="st8" d="M457.9,459.7c-0.2-0.1-0.5-0.1-0.7-0.2C457.4,459.6,457.7,459.6,457.9,459.7z"/>
	<path class="st8" d="M449.3,458c-0.6-0.1-1.1-0.1-1.7-0.2C448.1,457.9,448.7,458,449.3,458z"/>
	<path class="st8" d="M568.2,515.2L568.2,515.2c0,69.3-56.2,125.4-125.5,125.4c-25.9,0-49.9-7.8-69.8-21.2c0,0,0,0,0,0
		c20,13.4,44,21.2,69.8,21.2C512.1,640.6,568.2,584.5,568.2,515.2z"/>
	<path class="st8" d="M453.6,458.7c-0.3-0.1-0.7-0.1-1-0.2C452.9,458.6,453.3,458.6,453.6,458.7z"/>
	<path class="st8" d="M451.4,458.3c-0.4-0.1-0.9-0.1-1.3-0.2C450.6,458.2,451,458.3,451.4,458.3z"/>
	<path class="st8" d="M447.1,457.8c-0.7-0.1-1.4-0.1-2.1-0.1C445.7,457.7,446.4,457.8,447.1,457.8z"/>
	<path class="st8" d="M460,460.3L460,460.3c-0.3-0.1-0.6-0.2-0.9-0.3C459.4,460.1,459.7,460.2,460,460.3z"/>
	<path class="st8" d="M568.2,376.7c21.7,15.5,47.3,25.8,75.1,29.1C615.5,402.5,589.9,392.2,568.2,376.7z"/>
	<path class="st8" d="M442.8,457.6c0.7,0,1.4,0,2,0C444.2,457.7,443.5,457.6,442.8,457.6z"/>
	<path class="st10" d="M372.9,619.4c-22.1-22.6-35.8-53.5-35.8-87.7c0-68.4,54.8-124,122.8-125.4l0,0c0,0,0,0,0,0V391
		c-5.7-0.8-11.5-1.2-17.2-1.2c-69.3,0-125.5,56.1-125.5,125.4C317.3,558.6,339.4,596.9,372.9,619.4z"/>
	<path class="st10" d="M634.8,342.7c0.2,0.1,0.3,0.2,0.5,0.3c0.7,0.4,1.4,0.8,2.1,1.2c0.4,0.2,0.8,0.4,1.1,0.6
		c0.5,0.3,1,0.5,1.6,0.8c0.6,0.3,1.2,0.6,1.8,0.9c0.3,0.2,0.7,0.3,1,0.5c0.8,0.4,1.6,0.7,2.4,1.1c0.1,0.1,0.3,0.1,0.4,0.2
		c5.5,2.3,11.2,4.1,17.1,5.4v-14.4c-17.8,0-35.2-4.9-50.2-14.3c0.5,0.5,1,1,1.4,1.5C620.2,332.7,627.1,338.2,634.8,342.7z"/>
	<path class="st10" d="M462.4,588.9c29.7,0,54.1-22.5,57.1-51.3c0.2-1.9,0.3-3.9,0.3-5.8v-271h49.5c-0.5-2.6-0.8-5.2-1-7.8v-8.7H500
		v271c-0.1,31.6-25.8,57.2-57.4,57.2c-9.3,0-18.1-2.2-25.8-6.1C427.2,580,443.8,588.9,462.4,588.9z"/>
	<path class="st10" d="M337.2,531.7c0-68.4,54.7-124,122.8-125.4l0,0C391.9,407.7,337.2,463.3,337.2,531.7
		c0,34.1,13.6,65.1,35.7,87.7c0,0,0,0,0,0C350.8,596.8,337.2,565.8,337.2,531.7z"/>
	<path class="st10" d="M645.7,348.2c-0.1-0.1-0.3-0.1-0.4-0.2C645.4,348.1,645.6,348.1,645.7,348.2z"/>
	<path class="st10" d="M642.9,346.9c-0.3-0.2-0.7-0.3-1-0.5C642.2,346.6,642.6,346.8,642.9,346.9z"/>
	<path class="st10" d="M637.4,344.2c-0.7-0.4-1.4-0.8-2.1-1.2C636,343.4,636.7,343.8,637.4,344.2z"/>
	<path class="st10" d="M634.8,342.7c-7.7-4.5-14.6-10-20.7-16.4C620.2,332.8,627.2,338.3,634.8,342.7z"/>
	<path class="st10" d="M640.1,345.6c-0.5-0.3-1.1-0.5-1.6-0.8C639.1,345.1,639.6,345.3,640.1,345.6z"/>
	<path class="st8" d="M606.4,720.8c-0.9-17.6-15.6-31.6-33.5-31.6h-0.5c-15.1,0-27.8,9.8-32,23.4c-0.3,1-0.6,2.1-0.8,3.2
		c-0.4,2.2-0.7,4.4-0.7,6.7c0,2.3,0.2,4.5,0.7,6.7c0.2,1.1,0.5,2.1,0.8,3.2c4.2,13.5,17,23.4,32,23.4h0.5c18,0,32.6-14,33.5-31.6
		c0-0.6,0-1.1,0-1.7S606.4,721.4,606.4,720.8z M572.6,738.7c-8.5,0-15.4-6.4-16.2-14.5c-0.1-0.5-0.1-1.1-0.1-1.7s0-1.1,0.1-1.7
		c0.4-3.8,2.1-7.1,4.6-9.7c0,0,0.1-0.1,0.1-0.1c0.2-0.2,0.4-0.4,0.7-0.6c0.2-0.1,0.3-0.3,0.5-0.4c0.1-0.1,0.1-0.1,0.2-0.2
		c2.8-2.2,6.3-3.5,10.2-3.5c0,0,0,0,0,0s0,0,0,0c2.3,0,4.4,0.5,6.3,1.3c5.9,2.5,10,8.2,10,14.9c0,3.9-1.4,7.5-3.7,10.3
		C582.2,736.4,577.7,738.7,572.6,738.7z"/>
	<path class="st8" d="M540.3,712.6c-0.3,1-0.6,2.1-0.8,3.2C539.7,714.7,540,713.7,540.3,712.6z"/>
	<path class="st8" d="M540.3,712.6c4.2-13.5,17-23.4,32-23.4h0C557.3,689.2,544.6,699.1,540.3,712.6z"/>
	<path class="st8" d="M540.3,732.4c4.2,13.5,17,23.4,32,23.4h0C557.3,755.8,544.6,746,540.3,732.4z"/>
	<path class="st8" d="M539.5,729.2c0.2,1.1,0.5,2.1,0.8,3.2C540,731.4,539.7,730.3,539.5,729.2z"/>
	<path class="st8" d="M556.3,722.5c0-0.6,0-1.1,0.1-1.7C556.3,721.4,556.3,721.9,556.3,722.5z"/>
	<path class="st8" d="M561.7,710.5c0.2-0.1,0.3-0.3,0.5-0.4C562.1,710.2,561.9,710.3,561.7,710.5z"/>
	<path class="st8" d="M572.6,706.3c-3.8,0-7.4,1.3-10.2,3.5C565.2,707.7,568.8,706.3,572.6,706.3
		C572.6,706.3,572.6,706.3,572.6,706.3z"/>
	<path class="st8" d="M579,707.6c5.9,2.5,10,8.2,10,14.9c0,3.9-1.4,7.5-3.7,10.3c2.3-2.8,3.7-6.4,3.7-10.3
		C588.9,715.8,584.8,710.1,579,707.6z"/>
	<path class="st8" d="M561,711.2C561,711.1,561.1,711.1,561,711.2C561.1,711.1,561,711.1,561,711.2z"/>
	<path class="st8" d="M556.4,724.2c-0.1-0.5-0.1-1.1-0.1-1.7C556.3,723.1,556.3,723.6,556.4,724.2z"/>
</g>
</svg>
